<svg width="175" height="180" viewBox="0 0 175 180" fill="none" xmlns="http://www.w3.org/2000/svg">
<g clip-path="url(#clip0_1025_7710)">
<path opacity="0.5" d="M72.7376 41.2863C76.3233 40.4667 77.4502 37.1884 79.1918 34.5247C88.5145 19.9772 99.169 7.17128 116.688 1.84402C138.406 -4.71261 161.457 6.96639 169.55 28.2754C177.849 50.0967 174.98 70.8935 166.477 91.6903C160.023 107.467 150.495 121.195 138.201 132.977C134.206 136.87 129.596 140.045 125.191 143.631C121.093 140.25 117.917 134.821 111.053 136.87C110.438 134.923 109.004 133.694 107.262 132.874C106.135 131.645 104.906 130.313 103.779 129.084C103.882 128.571 103.779 127.957 104.086 127.649C114.843 114.946 117.814 100.193 116.175 84.0068C118.429 84.0068 120.581 84.1092 122.834 83.9044C127.649 83.597 131.952 83.597 130.62 90.461C130.518 91.1781 130.415 92.305 131.542 92.6124C132.567 92.9197 132.977 91.9977 133.591 91.383C137.177 87.7973 140.558 84.4166 145.783 82.7774C153.569 80.3187 156.232 75.7086 156.232 67.4103C156.232 56.346 156.232 45.2817 156.232 34.2174C156.232 24.7922 150.085 18.4405 140.66 18.4405C129.801 18.338 118.839 18.338 107.98 18.4405C98.6568 18.5429 91.9977 25.202 91.6904 34.5247C91.5879 39.1349 91.5879 43.745 91.4855 48.3551C85.5435 44.7695 79.1918 42.9254 72.7376 41.2863ZM141.685 111.053C141.685 108.902 140.66 107.57 138.406 107.467C136.357 107.365 134.718 108.184 134.616 110.541C134.616 112.897 135.948 114.331 138.304 114.536C140.66 114.639 141.685 113.204 141.685 111.053Z" fill="#FECB00" fill-opacity="0.4"/>
<path d="M72.7376 41.2864C79.1918 42.9256 85.5435 44.7696 91.383 48.2528C91.383 51.2238 91.383 54.1948 91.383 57.1657C89.2317 56.5511 87.7974 54.2972 85.3387 54.0923C84.6215 53.5801 84.0068 52.9654 83.2897 52.6581C63.8247 43.8476 43.0279 48.3553 29.3 64.6444C17.2112 78.987 15.4696 99.6814 24.7923 114.536C27.3535 121.81 32.7832 126.83 38.93 130.723C67.3079 149.061 104.291 131.85 108.799 98.452C109.311 94.9688 108.902 91.7929 105.828 89.2318C102.857 86.773 100.398 83.5972 97.7348 80.8311C101.32 82.5727 105.009 83.3923 109.004 83.1874C111.36 83.0849 113.717 82.7776 115.97 83.9045C117.61 99.9887 114.741 114.844 103.882 127.547C103.574 127.854 103.677 128.572 103.574 128.981C101.218 129.289 99.8862 130.723 99.5788 132.977C98.4519 132.874 97.6323 133.489 96.8128 134.104C86.2607 142.504 74.1719 145.988 60.7513 145.475C41.2863 144.758 22.1286 131.133 15.2647 112.897C9.42517 97.3251 10.757 82.3678 17.9283 67.6154C21.2066 63.1077 24.28 58.3951 28.3779 54.5021C39.6471 45.3843 52.1457 40.057 66.8981 40.8766C68.8446 40.9791 70.7911 41.184 72.7376 41.2864Z" fill="#4D4D4D"/>
<path opacity="0.5" d="M17.9283 67.6152C10.757 82.3677 9.42514 97.4274 15.3671 112.999C22.3335 131.235 41.3887 144.861 60.8537 145.578C74.3768 146.09 86.3631 142.607 96.9152 134.206C97.7348 133.591 98.5543 132.977 99.6813 133.079C101.013 134.308 102.345 135.435 103.677 136.665C104.291 138.509 105.521 139.738 107.365 140.455C106.545 144.246 107.262 147.524 109.926 150.393C102.038 155.105 93.1246 156.335 84.3142 157.769C72.4303 159.715 60.6488 158.896 49.0723 155.72C25.3045 149.163 5.83948 134.411 0.819565 108.594C-2.25386 93.2271 2.76606 78.9869 15.572 68.4348C16.1867 67.8201 17.1087 67.8201 17.9283 67.6152Z" fill="#FECB00" fill-opacity="0.4"/>
<path opacity="0.5" d="M66.8981 40.8769C52.1457 39.9549 39.5447 45.2822 28.3779 54.4C27.4559 53.1706 26.1241 53.1706 24.6898 53.0682C21.7188 52.9657 19.465 51.8388 18.2356 48.9703C17.0063 45.8969 18.7479 43.8479 20.4895 41.5941C23.1531 38.1109 27.0461 36.0619 30.6317 34.013C42.0034 27.7637 53.4775 21.4119 66.4883 18.7483C69.152 18.2361 71.3034 18.0312 73.5572 20.0801C75.9135 22.334 74.3768 24.4854 73.8645 26.6367C72.6352 31.964 69.2544 36.1644 66.8981 40.8769Z" fill="#FECB00" fill-opacity="0.4"/>
<path d="M110.028 150.29C107.365 147.421 106.648 144.143 107.467 140.352C108.697 139.123 109.926 137.996 111.155 136.767C117.917 134.718 121.093 140.148 125.293 143.528C132.567 150.905 139.841 158.281 147.114 165.657C151.52 170.165 152.032 174.16 148.651 177.643C145.27 181.126 141.07 180.717 136.665 176.414C127.649 167.706 118.839 158.998 110.028 150.29Z" fill="#292D32"/>
<path d="M16.494 157.974C16.0842 161.047 14.3426 163.301 11.3717 163.403C8.29823 163.506 5.73705 161.867 5.53215 158.281C5.32726 154.798 7.37621 152.851 10.757 152.646C14.4451 152.339 15.6744 155.003 16.494 157.974Z" fill="#FECB00"/>
<path d="M46.3062 7.88824C45.9989 9.5274 45.2817 10.7568 43.4377 10.6543C41.7985 10.4494 40.5692 9.42496 40.5692 7.68335C40.5692 5.94175 41.6961 4.91727 43.5401 5.01972C45.2817 5.12217 46.2038 6.14664 46.3062 7.88824Z" fill="#FECB00"/>
<path d="M156.027 34.217C156.027 45.2813 156.027 56.3456 156.027 67.41C156.027 75.7082 153.364 80.3183 145.578 82.7771C140.353 84.4162 136.972 87.797 133.386 91.3826C132.772 91.9973 132.362 92.8169 131.338 92.612C130.313 92.3047 130.313 91.2802 130.415 90.4606C131.85 83.4942 127.445 83.5966 122.629 83.904C120.478 84.0064 118.224 84.0064 115.97 84.0064C113.717 82.7771 111.36 83.0844 109.004 83.2893C105.009 83.5966 101.32 82.6746 97.7348 80.933C92.9198 76.6302 90.9733 71.303 91.3831 64.9512C91.5879 62.39 91.2806 59.8289 91.1782 57.2677C91.1782 54.2967 91.1782 51.3257 91.1782 48.3547C91.1782 43.7446 91.1782 39.1345 91.3831 34.5244C91.5879 25.2016 98.247 18.5426 107.672 18.4401C118.532 18.3377 129.493 18.3377 140.353 18.4401C149.88 18.4401 156.027 24.7919 156.027 34.217Z" fill="white"/>
<path d="M141.685 111.052C141.582 113.204 140.558 114.638 138.304 114.536C136.05 114.331 134.616 112.897 134.616 110.54C134.616 108.184 136.255 107.467 138.406 107.467C140.763 107.467 141.685 108.799 141.685 111.052Z" fill="#FECB00"/>
<path d="M103.677 136.563C102.345 135.333 101.013 134.206 99.6813 132.977C100.091 130.621 101.32 129.289 103.677 128.981C104.804 130.211 106.033 131.543 107.16 132.772C106.033 134.104 104.906 135.333 103.677 136.563Z" fill="#292D32"/>
<path d="M103.677 136.562C104.804 135.333 106.033 134.001 107.16 132.771C108.902 133.591 110.438 134.718 110.95 136.767C109.721 137.996 108.492 139.123 107.262 140.353C105.623 139.635 104.394 138.406 103.677 136.562Z" fill="#4D4D4D"/>
<path d="M91.383 57.1653C91.4855 59.7265 91.6904 62.2877 91.5879 64.8489C91.0757 71.2006 93.1246 76.5279 97.9397 80.8306C100.603 83.6992 103.062 86.7726 106.033 89.2313C109.106 91.7925 109.414 94.9684 109.004 98.4516C104.496 131.849 67.5128 149.061 39.1349 130.723C32.9881 126.727 27.5583 121.81 24.9972 114.536C35.959 119.044 39.1349 118.429 47.8429 109.721C57.9852 99.681 68.2299 89.6411 78.3722 79.6013C81.6505 79.7037 84.4166 81.8551 87.49 82.5723C88.5145 82.7771 89.6414 82.982 90.1537 81.8551C90.6659 80.5233 89.539 80.216 88.617 79.8062C86.4656 78.8841 84.3142 77.8597 82.2652 76.8352C88.0023 69.9712 90.461 62.595 85.5435 54.1943C87.7974 54.2968 89.1292 56.5506 91.383 57.1653ZM85.3387 91.6901C86.0558 88.1044 83.1873 86.6701 80.3187 86.3628C77.2453 85.953 75.4013 88.4117 75.2988 91.3827C75.1964 94.4561 77.1429 96.71 80.1138 96.8124C83.0848 97.1198 85.4411 95.6855 85.3387 91.6901ZM64.3369 111.667C65.3614 110.745 68.2299 112.692 68.2299 110.233C68.2299 108.184 65.6688 108.594 64.0296 108.696C62.6978 108.696 60.3415 107.877 60.2391 109.926C60.0342 112.487 62.6978 111.053 64.3369 111.667Z" fill="#FECB00"/>
<path d="M78.2698 79.6018C68.1275 89.6416 57.8828 99.6814 47.7405 109.721C39.0324 118.327 35.8566 119.044 24.8947 114.536C15.572 99.6814 17.3136 78.9871 29.4024 64.6444C43.0279 48.3553 63.8247 43.8476 83.2897 52.6581C84.0068 52.9655 84.6215 53.5801 85.3387 54.0924C90.2561 62.4931 87.7974 69.8693 82.0603 76.7332C80.6261 76.4259 79.1918 75.9137 77.6551 75.7088C76.6306 75.5039 75.1964 74.1721 74.4792 75.7088C73.5572 77.5528 75.5037 77.7577 76.5282 78.4748C77.1429 78.8846 77.6551 79.192 78.2698 79.6018ZM63.7223 53.1703C45.4866 52.2483 28.7877 65.8738 24.1776 84.7241C23.7678 86.2608 23.7678 88.1049 25.7143 88.5147C27.4559 88.9245 27.8657 87.2853 28.173 85.9535C28.3779 85.1339 28.6853 84.3143 28.9926 83.4948C32.066 71.7133 39.3398 63.62 50.8139 59.3172C56.4485 57.1658 62.0831 55.834 68.1275 57.1658C69.5618 57.4731 71.5083 57.2682 71.6107 55.2193C71.6107 53.4777 69.9715 53.2728 68.6397 53.2728C66.6932 53.1703 64.8492 53.1703 63.7223 53.1703ZM52.6579 91.9979C52.5555 88.822 50.9163 86.4657 48.0478 86.3633C44.9744 86.2608 42.4132 88.0024 42.4132 91.5881C42.3108 94.9689 44.1548 97.2227 47.638 97.1203C50.5065 97.0178 52.7604 95.3787 52.6579 91.9979ZM53.58 77.0406C53.4775 74.9916 52.6579 74.8892 51.4286 75.299C47.4331 76.7332 43.4377 78.2699 39.5447 79.8067C38.5202 80.2164 37.8031 81.2409 38.7251 82.1629C39.9545 83.5972 41.2863 82.3678 42.4132 81.8556C46.1013 80.114 50.5065 79.6018 53.58 77.0406ZM23.8702 96.4031C24.1776 98.1447 23.358 100.501 25.9192 100.808C27.6608 101.013 28.173 99.2717 27.8657 97.9398C27.3534 95.9933 27.7632 92.9199 25.0996 92.6126C23.1531 92.5101 24.28 95.0713 23.8702 96.4031Z" fill="#FECB00" fill-opacity="0.4"/>
<path d="M85.3386 91.6902C85.3386 95.5832 83.0848 97.0174 80.1138 96.915C77.1428 96.7101 75.1963 94.5587 75.2988 91.4853C75.4012 88.4118 77.2453 86.0556 80.3187 86.4653C83.1872 86.7727 86.0558 88.1045 85.3386 91.6902Z" fill="#4D4D4D"/>
<path d="M78.2698 79.6017C77.7576 79.1919 77.1429 78.8845 76.6306 78.4748C75.6062 77.7576 73.6597 77.4503 74.5817 75.7087C75.2988 74.2744 76.7331 75.6062 77.7576 75.7087C79.1918 75.9136 80.7285 76.4258 82.1628 76.7332C84.3142 77.7576 86.3631 78.7821 88.5145 79.7041C89.4365 80.1139 90.5635 80.4213 90.0512 81.7531C89.539 82.9824 88.4121 82.7776 87.3876 82.4702C84.2117 81.8555 81.5481 79.7041 78.2698 79.6017Z" fill="#4D4D4D"/>
<path d="M64.337 111.668C62.6978 111.053 60.0342 112.488 60.2391 109.824C60.3415 107.878 62.6978 108.697 64.0296 108.595C65.5663 108.492 68.23 108.082 68.23 110.131C68.23 112.693 65.3614 110.644 64.337 111.668Z" fill="#4D4D4D"/>
<path opacity="0.2" d="M63.7222 53.1701C64.8492 53.1701 66.6932 53.1701 68.5373 53.1701C69.9715 53.1701 71.6107 53.375 71.5082 55.1166C71.4058 57.268 69.5617 57.3704 68.025 57.0631C61.9806 55.7313 56.346 57.1656 50.7114 59.2145C39.3398 63.6197 32.066 71.7131 28.8901 83.4945C28.6852 84.3141 28.3779 85.1337 28.0706 85.9533C27.6608 87.2851 27.3534 88.9242 25.6118 88.5144C23.6653 88.1047 23.6653 86.2606 24.0751 84.7239C28.7877 65.8736 45.4866 52.2481 63.7222 53.1701Z" fill="#FECB00" fill-opacity="0.4"/>
<path d="M52.6579 91.9973C52.6579 95.4805 50.5066 97.0172 47.5356 97.1196C44.1548 97.2221 42.3108 94.9682 42.3108 91.5875C42.4132 88.0018 44.9744 86.2602 47.9454 86.3627C50.9163 86.4651 52.6579 88.8214 52.6579 91.9973Z" fill="#4D4D4D"/>
<path d="M53.58 77.04C50.5065 79.6012 46.1013 80.1134 42.4132 81.855C41.2863 82.3672 39.9545 83.4942 38.7251 82.1623C37.9055 81.1379 38.5202 80.2159 39.5447 79.8061C43.5401 78.2694 47.4331 76.8351 51.4286 75.2984C52.6579 74.8886 53.4775 75.0935 53.58 77.04Z" fill="#4D4D4D"/>
<path opacity="0.2" d="M23.8702 96.4028C24.28 95.071 23.1531 92.5098 25.0996 92.7147C27.6608 92.9196 27.3535 95.993 27.8657 98.042C28.173 99.3738 27.6608 101.115 25.9192 100.911C23.358 100.501 24.1776 98.1444 23.8702 96.4028Z" fill="#FECB00" fill-opacity="0.4"/>
<path d="M113.717 39.2373L133.694 59.2145" stroke="#EA4335" stroke-width="3" stroke-miterlimit="10" stroke-linecap="round"/>
<path d="M113.717 59.2145L133.694 39.2373" stroke="#EA4335" stroke-width="3" stroke-miterlimit="10" stroke-linecap="round"/>
</g>
<defs>
<clipPath id="clip0_1025_7710">
<rect width="174.57" height="180" fill="white"/>
</clipPath>
</defs>
</svg>
